<svg id="Layer_1" data-name="Layer 1" xmlns="http://www.w3.org/2000/svg" viewBox="0 0 2004 2004"><defs><style>.cls-1{fill:#fff;}</style></defs><path class="cls-1" d="M22,22H2026V2026H22ZM153.74,1501.23H165q313.26,0,626.52-.06c49.7,0,98-8.26,143.67-28.44,73.18-32.33,127.38-84,157-159.16,20.42-51.85,24.83-105.94,14.86-160.49-16.49-90.22-63.23-160.94-141.56-209.59-38.74-24.06-81.7-36.84-126.56-43.67-2.17-.33-4.29-1.05-6.44-1.59,10.33-4.32,20.39-7,30.27-10.15,44.77-14.41,86.56-34.33,121.33-66.87,60.86-57,81-126.59,62.07-207.14-11-46.83-38.09-84.55-73-116.83-40.46-37.47-88.86-59.65-142-72.34-41.12-9.82-82.91-12.77-125.07-12.7q-173.49.27-347,.06-155.41,0-310.82,0c-3.68,0-7.37.25-11.05.38a33.61,33.61,0,0,0,8.62,8.88q71.78,55,143.65,109.77c6,4.52,8.57,9.13,8.56,16.89q-.33,387.54-.27,775.09a69.7,69.7,0,0,1-2.14,17.32c-11.26,43.49-22.81,86.91-34.24,130.37C159,1480.36,156.65,1489.79,153.74,1501.23Zm902.43,0h12.23q257,0,514.09-.12a461.33,461.33,0,0,0,49.71-2.75c87.39-9.61,162-46.06,224.57-107.67,48.06-47.36,83-103.44,108.94-165.35,27.34-65.18,41.64-133.41,47.27-203.69,6.19-77.15,2.13-153.65-14.55-229.28-18.85-85.5-53.82-163.74-107.77-233-41.63-53.45-92.85-94.72-156.17-120-48.75-19.5-99.56-27.14-151.91-27.09q-316.66.31-633.32.11c-3.09,0-6.17.34-11.2.64,3.93,3.3,6.23,5.4,8.69,7.28,48.61,37.25,97.16,74.58,146,111.53,5.92,4.48,8,9,7.9,16.28-.31,46.91-.15,93.82-.15,140.73q0,169.08-.07,338.16c0,6.64,1,12.59,4.29,18.6,11.9,21.78,20.64,44.83,27.23,68.79,14.2,51.68,16.62,103.68,6.13,156.31-8.43,42.25-22.44,82.14-48.37,117.09a57.34,57.34,0,0,0-9.46,21.12c-3.11,12.64-6.6,25.19-9.89,37.79C1065.76,1464.23,1061.21,1481.81,1056.17,1501.23Z" transform="translate(-22 -22)"/><path d="M153.74,1501.23c2.91-11.44,5.23-20.87,7.7-30.25,11.43-43.46,23-86.88,34.24-130.37a69.7,69.7,0,0,0,2.14-17.32q.15-387.54.27-775.09c0-7.76-2.6-12.37-8.56-16.89q-72-54.64-143.65-109.77a33.61,33.61,0,0,1-8.62-8.88c3.68-.13,7.37-.38,11.05-.38q155.41,0,310.82,0,173.49,0,347-.06c42.16-.07,83.95,2.88,125.07,12.7,53.15,12.69,101.55,34.87,142,72.34,34.86,32.28,62,70,73,116.83,18.9,80.55-1.21,150.16-62.07,207.14-34.77,32.54-76.56,52.46-121.33,66.87-9.88,3.19-19.94,5.83-30.27,10.15,2.15.54,4.27,1.26,6.44,1.59,44.86,6.83,87.82,19.61,126.56,43.67,78.33,48.65,125.07,119.37,141.56,209.59,10,54.55,5.56,108.64-14.86,160.49-29.61,75.16-83.81,126.83-157,159.16-45.67,20.18-94,28.41-143.67,28.44q-313.26.19-626.52.06ZM463.27,991.48v340.18c2.5.26,4.4.64,6.31.64,68.4,0,136.82,1,205.19-.49,56.85-1.28,100.13-27.38,127-78.55,17.73-33.79,24.1-69.93,21.69-107.75-1.65-26-7-51.18-20.42-73.71-30.52-51.24-76-78.91-135.65-80-64.79-1.21-129.62-.28-194.44-.29ZM462.72,822h11.21c52.76,0,105.53.12,158.29-.11a243.57,243.57,0,0,0,33.06-2.3c80.38-11.41,112.4-81.37,102.52-139.85C761,639.45,737.69,612,701.47,595c-20.59-9.66-42.67-13.91-65.41-13.93q-160.74-.12-321.48,0c-2.74,0-5.48.25-8.22.38l-.25,1.52,156.61,60.57Z" transform="translate(-22 -22)"/><path d="M1056.17,1501.23c5-19.42,9.59-37,14.18-54.58,3.29-12.6,6.78-25.15,9.89-37.79a57.34,57.34,0,0,1,9.46-21.12c25.93-35,39.94-74.84,48.37-117.09,10.49-52.63,8.07-104.63-6.13-156.31-6.59-24-15.33-47-27.23-68.79-3.28-6-4.29-12-4.29-18.6q.13-169.08.07-338.16c0-46.91-.16-93.82.15-140.73,0-7.24-2-11.8-7.9-16.28-48.83-36.95-97.38-74.28-146-111.53-2.46-1.88-4.76-4-8.69-7.28,5-.3,8.11-.64,11.2-.64q316.66,0,633.32-.11c52.35-.05,103.16,7.59,151.91,27.09,63.32,25.33,114.54,66.6,156.17,120.05,53.95,69.27,88.92,147.51,107.77,233,16.68,75.63,20.74,152.13,14.55,229.28-5.63,70.28-19.93,138.51-47.27,203.69-26,61.91-60.88,118-108.94,165.35-62.52,61.61-137.18,98.06-224.57,107.67a461.33,461.33,0,0,1-49.71,2.75q-257,.29-514.09.12ZM1365.26,1332a51.52,51.52,0,0,0,5.28.64c39.75-.12,79.52.44,119.25-.62,40.54-1.08,77.12-14.63,109.49-39.22,25.82-19.61,45.94-44.23,62.4-71.91,32.62-54.88,50.71-114.71,59.34-177.63,6.26-45.69,7.17-91.56,3.74-137.51-3.74-50.29-12.86-99.48-31.31-146.6-17.27-44.13-40.53-84.6-74.78-118-39.76-38.72-87.16-60-143-60.22-87-.33-174-.1-261-.07a58.39,58.39,0,0,0-6,.59c0,.55,0,1.1,0,1.65l156.7,60.6Z" transform="translate(-22 -22)"/><path class="cls-1" d="M463.27,991.48h9.67c64.82,0,129.65-.92,194.44.29,59.66,1.12,105.13,28.79,135.65,80,13.41,22.53,18.77,47.75,20.42,73.71,2.41,37.82-4,74-21.69,107.75-26.86,51.17-70.14,77.27-127,78.55-68.37,1.53-136.79.46-205.19.49-1.91,0-3.81-.38-6.31-.64Z" transform="translate(-22 -22)"/><path class="cls-1" d="M462.72,822V643.52L306.11,583l.25-1.52c2.74-.13,5.48-.38,8.22-.38q160.74,0,321.48,0c22.74,0,44.82,4.27,65.41,13.93,36.22,17,59.53,44.44,66.33,84.72,9.88,58.48-22.14,128.44-102.52,139.85a243.57,243.57,0,0,1-33.06,2.3c-52.76.23-105.53.11-158.29.11Z" transform="translate(-22 -22)"/><path class="cls-1" d="M1365.26,1332V643.73l-156.7-60.6c0-.55,0-1.1,0-1.65a58.39,58.39,0,0,1,6-.59c87,0,174-.26,261,.07,55.88.21,103.28,21.5,143,60.22,34.25,33.36,57.51,73.83,74.78,118,18.45,47.12,27.57,96.31,31.31,146.6,3.43,46,2.52,91.82-3.74,137.51-8.63,62.92-26.72,122.75-59.34,177.63-16.46,27.68-36.58,52.3-62.4,71.91-32.37,24.59-69,38.14-109.49,39.22-39.73,1.06-79.5.5-119.25.62A51.52,51.52,0,0,1,1365.26,1332Z" transform="translate(-22 -22)"/></svg>