<?xml version="1.0" standalone="no"?>
<!DOCTYPE svg PUBLIC "-//W3C//DTD SVG 20010904//EN"
 "http://www.w3.org/TR/2001/REC-SVG-20010904/DTD/svg10.dtd">
<svg version="1.0" xmlns="http://www.w3.org/2000/svg"
 width="2048.000000pt" height="2048.000000pt" viewBox="0 0 2048.000000 2048.000000"
 preserveAspectRatio="xMidYMid meet">

<g transform="translate(0.000000,2048.000000) scale(0.100000,-0.100000)"
fill="#000000" stroke="none">
<path d="M1992 15830 l-1903 -5 48 -46 c47 -45 412 -327 1138 -878 198 -151
379 -292 403 -315 23 -22 47 -56 52 -76 14 -50 13 -8043 -1 -8130 -5 -36 -93
-380 -194 -765 -228 -870 -247 -946 -240 -954 12 -12 6738 -3 6879 9 470 41
866 147 1261 340 578 282 1031 702 1311 1215 333 611 444 1269 328 1955 -156
926 -616 1644 -1374 2146 -367 242 -753 389 -1271 485 -90 16 -165 31 -167 34
-6 6 18 15 225 81 322 103 562 202 768 315 638 353 1074 895 1209 1500 39 177
49 301 43 514 -18 624 -227 1106 -682 1574 -173 178 -299 284 -480 406 -498
335 -1086 517 -1885 586 -159 14 -2517 18 -5468 9z m4471 -1745 c403 -53 758
-259 951 -550 194 -292 241 -713 120 -1075 -127 -379 -412 -650 -806 -764
-207 -60 -204 -60 -1280 -63 l-988 -4 -2 916 -3 916 -710 275 c-390 151 -752
291 -802 310 -51 20 -93 40 -93 45 0 5 725 9 1753 9 1466 0 1770 -3 1860 -15z
m169 -4205 c165 -11 302 -36 437 -80 519 -169 945 -657 1050 -1203 46 -237 53
-570 16 -787 -89 -534 -371 -985 -758 -1216 -142 -84 -325 -148 -519 -180 -92
-16 -220 -18 -1227 -21 -619 -3 -1135 -2 -1148 2 l-23 5 0 1745 0 1745 1013 0
c556 0 1078 -5 1159 -10z"/>
<path d="M11120 15830 l-1784 -5 54 -46 c51 -42 674 -520 1299 -997 149 -113
274 -216 285 -234 l21 -33 5 -2550 5 -2550 86 -180 c172 -358 280 -720 335
-1130 22 -165 26 -616 6 -780 -73 -591 -239 -1059 -526 -1480 -34 -49 -71
-115 -83 -145 -20 -49 -273 -1006 -273 -1030 0 -7 962 -10 2808 -10 3004 0
2943 -1 3269 49 815 125 1507 475 2117 1071 535 523 951 1189 1240 1988 411
1136 517 2609 280 3902 -197 1074 -598 1965 -1242 2760 -114 141 -451 475
-583 579 -587 461 -1193 709 -1941 796 -323 37 -650 38 -5378 25z m3993 -1745
c735 -96 1362 -588 1782 -1399 283 -544 437 -1116 507 -1881 17 -185 17 -965
0 -1130 -80 -781 -232 -1342 -513 -1895 -200 -395 -433 -703 -700 -926 -314
-261 -691 -419 -1084 -453 -67 -6 -399 -11 -752 -11 l-633 0 0 3534 c0 2818
-3 3535 -12 3539 -7 3 -352 136 -765 296 -907 351 -833 321 -833 332 0 5 605
9 1444 9 1226 0 1462 -2 1559 -15z"/>
</g>
</svg>
